<mxfile host="Electron" modified="2024-02-28T19:27:33.759Z" agent="Mozilla/5.0 (Windows NT 10.0; Win64; x64) AppleWebKit/537.36 (KHTML, like Gecko) draw.io/23.1.5 Chrome/120.0.6099.109 Electron/28.1.0 Safari/537.36" etag="6LkfuKiCdVHJvW1U6D2l" version="23.1.5" type="device">
  <diagram name="Страница — 1" id="wZLS3VO2oLWJ8G-E-Lle">
    <mxGraphModel dx="1195" dy="697" grid="1" gridSize="10" guides="1" tooltips="1" connect="1" arrows="1" fold="1" page="1" pageScale="1" pageWidth="827" pageHeight="1169" math="0" shadow="0">
      <root>
        <mxCell id="0" />
        <mxCell id="1" parent="0" />
        <mxCell id="eRXFTEGCuirWfFOPao4L-2" value="Создание проекта" style="text;html=1;align=center;verticalAlign=middle;whiteSpace=wrap;rounded=0;" vertex="1" parent="1">
          <mxGeometry x="250" width="110" height="30" as="geometry" />
        </mxCell>
        <mxCell id="eRXFTEGCuirWfFOPao4L-13" style="edgeStyle=orthogonalEdgeStyle;rounded=0;orthogonalLoop=1;jettySize=auto;html=1;entryX=0.5;entryY=0;entryDx=0;entryDy=0;" edge="1" parent="1" source="eRXFTEGCuirWfFOPao4L-3" target="eRXFTEGCuirWfFOPao4L-10">
          <mxGeometry relative="1" as="geometry" />
        </mxCell>
        <mxCell id="eRXFTEGCuirWfFOPao4L-3" value="Ввод: &lt;br&gt;Название проекта: projectName&lt;br&gt;Ссылка на проект: projectUrl&lt;br&gt;&lt;br&gt;Глобальные данные:&lt;br&gt;Массив(Проект): projectsArray" style="shape=parallelogram;html=1;strokeWidth=2;perimeter=parallelogramPerimeter;whiteSpace=wrap;rounded=1;arcSize=12;size=0.23;" vertex="1" parent="1">
          <mxGeometry x="120" y="40" width="350" height="100" as="geometry" />
        </mxCell>
        <mxCell id="eRXFTEGCuirWfFOPao4L-14" style="edgeStyle=orthogonalEdgeStyle;rounded=0;orthogonalLoop=1;jettySize=auto;html=1;entryX=0.5;entryY=0;entryDx=0;entryDy=0;" edge="1" parent="1" source="eRXFTEGCuirWfFOPao4L-10" target="eRXFTEGCuirWfFOPao4L-11">
          <mxGeometry relative="1" as="geometry" />
        </mxCell>
        <mxCell id="eRXFTEGCuirWfFOPao4L-10" value="addNewProject(projectName, projectUrl) -&amp;gt; projectNumber" style="shape=process;whiteSpace=wrap;html=1;backgroundOutline=1;" vertex="1" parent="1">
          <mxGeometry x="120" y="190" width="350" height="60" as="geometry" />
        </mxCell>
        <mxCell id="eRXFTEGCuirWfFOPao4L-11" value="Вывод: projectNumber" style="shape=parallelogram;html=1;strokeWidth=2;perimeter=parallelogramPerimeter;whiteSpace=wrap;rounded=1;arcSize=12;size=0.23;" vertex="1" parent="1">
          <mxGeometry x="120" y="310" width="350" height="60" as="geometry" />
        </mxCell>
        <mxCell id="eRXFTEGCuirWfFOPao4L-15" value="addNewProject" style="text;html=1;align=center;verticalAlign=middle;whiteSpace=wrap;rounded=0;" vertex="1" parent="1">
          <mxGeometry x="710" width="110" height="30" as="geometry" />
        </mxCell>
        <mxCell id="eRXFTEGCuirWfFOPao4L-16" style="edgeStyle=orthogonalEdgeStyle;rounded=0;orthogonalLoop=1;jettySize=auto;html=1;entryX=0.5;entryY=0;entryDx=0;entryDy=0;" edge="1" parent="1" source="eRXFTEGCuirWfFOPao4L-17" target="eRXFTEGCuirWfFOPao4L-22">
          <mxGeometry relative="1" as="geometry">
            <mxPoint x="755" y="190" as="targetPoint" />
          </mxGeometry>
        </mxCell>
        <mxCell id="eRXFTEGCuirWfFOPao4L-17" value="Ввод: &lt;br&gt;Название проекта: projectName&lt;br&gt;Ссылка на проект: projectUrl&lt;br&gt;&lt;br&gt;Глобальные данные:&lt;br&gt;Массив(Проект): projectsArray" style="shape=parallelogram;html=1;strokeWidth=2;perimeter=parallelogramPerimeter;whiteSpace=wrap;rounded=1;arcSize=12;size=0.23;" vertex="1" parent="1">
          <mxGeometry x="580" y="40" width="350" height="100" as="geometry" />
        </mxCell>
        <mxCell id="eRXFTEGCuirWfFOPao4L-24" style="edgeStyle=orthogonalEdgeStyle;rounded=0;orthogonalLoop=1;jettySize=auto;html=1;entryX=0.5;entryY=0;entryDx=0;entryDy=0;" edge="1" parent="1" source="eRXFTEGCuirWfFOPao4L-22" target="eRXFTEGCuirWfFOPao4L-23">
          <mxGeometry relative="1" as="geometry" />
        </mxCell>
        <mxCell id="eRXFTEGCuirWfFOPao4L-22" value="Получение адреса создателя: addressAuthor&lt;br&gt;Получение номера проекта: projectNumber = projectsArray.size()&lt;div&gt;Статус проекта = Открыт&lt;/div&gt;&lt;div&gt;Ссылка на проект = projectUrl&lt;/div&gt;&lt;div&gt;Название проекта = projectName&lt;/div&gt;&lt;div&gt;Сумма инвестиций = 0&lt;/div&gt;&lt;div&gt;Сумма выплат = 0&lt;/div&gt;" style="rounded=0;whiteSpace=wrap;html=1;" vertex="1" parent="1">
          <mxGeometry x="550" y="190" width="410" height="130" as="geometry" />
        </mxCell>
        <mxCell id="eRXFTEGCuirWfFOPao4L-26" style="edgeStyle=orthogonalEdgeStyle;rounded=0;orthogonalLoop=1;jettySize=auto;html=1;entryX=0.5;entryY=0;entryDx=0;entryDy=0;" edge="1" parent="1" source="eRXFTEGCuirWfFOPao4L-23" target="eRXFTEGCuirWfFOPao4L-25">
          <mxGeometry relative="1" as="geometry" />
        </mxCell>
        <mxCell id="eRXFTEGCuirWfFOPao4L-23" value="Создание стурктуры Проект и добавление ее в массив projectsArray" style="rounded=0;whiteSpace=wrap;html=1;" vertex="1" parent="1">
          <mxGeometry x="550" y="360" width="410" height="130" as="geometry" />
        </mxCell>
        <mxCell id="eRXFTEGCuirWfFOPao4L-25" value="Вывод: projectNumber" style="shape=parallelogram;html=1;strokeWidth=2;perimeter=parallelogramPerimeter;whiteSpace=wrap;rounded=1;arcSize=12;size=0.23;" vertex="1" parent="1">
          <mxGeometry x="580" y="540" width="350" height="60" as="geometry" />
        </mxCell>
        <mxCell id="eRXFTEGCuirWfFOPao4L-27" value="Инвестирование в проект" style="text;html=1;align=center;verticalAlign=middle;whiteSpace=wrap;rounded=0;" vertex="1" parent="1">
          <mxGeometry x="1170" width="110" height="30" as="geometry" />
        </mxCell>
        <mxCell id="eRXFTEGCuirWfFOPao4L-33" style="edgeStyle=orthogonalEdgeStyle;rounded=0;orthogonalLoop=1;jettySize=auto;html=1;entryX=0.5;entryY=0;entryDx=0;entryDy=0;" edge="1" parent="1" source="eRXFTEGCuirWfFOPao4L-29" target="eRXFTEGCuirWfFOPao4L-32">
          <mxGeometry relative="1" as="geometry" />
        </mxCell>
        <mxCell id="eRXFTEGCuirWfFOPao4L-29" value="getProjectInfo(projectNumber) -&amp;gt; project" style="shape=process;whiteSpace=wrap;html=1;backgroundOutline=1;" vertex="1" parent="1">
          <mxGeometry x="1050" y="290" width="350" height="60" as="geometry" />
        </mxCell>
        <mxCell id="eRXFTEGCuirWfFOPao4L-40" style="edgeStyle=orthogonalEdgeStyle;rounded=0;orthogonalLoop=1;jettySize=auto;html=1;entryX=0.5;entryY=0;entryDx=0;entryDy=0;" edge="1" parent="1" source="eRXFTEGCuirWfFOPao4L-30" target="eRXFTEGCuirWfFOPao4L-37">
          <mxGeometry relative="1" as="geometry" />
        </mxCell>
        <mxCell id="eRXFTEGCuirWfFOPao4L-30" value="Ввод: &lt;br&gt;Номер проекта: projectNumber&lt;br&gt;Сумма инвестици: investAmmount&lt;br&gt;&lt;br&gt;Глобальные данные:&lt;br&gt;Массив(Проект): projectsArray" style="shape=parallelogram;html=1;strokeWidth=2;perimeter=parallelogramPerimeter;whiteSpace=wrap;rounded=1;arcSize=12;size=0.23;" vertex="1" parent="1">
          <mxGeometry x="1050" y="40" width="350" height="100" as="geometry" />
        </mxCell>
        <mxCell id="eRXFTEGCuirWfFOPao4L-44" style="edgeStyle=orthogonalEdgeStyle;rounded=0;orthogonalLoop=1;jettySize=auto;html=1;entryX=0.5;entryY=0;entryDx=0;entryDy=0;" edge="1" parent="1" source="eRXFTEGCuirWfFOPao4L-32" target="eRXFTEGCuirWfFOPao4L-43">
          <mxGeometry relative="1" as="geometry" />
        </mxCell>
        <mxCell id="eRXFTEGCuirWfFOPao4L-32" value="getAllProjectsAuthor(project.addressAuthor)-&amp;gt;array(project)" style="shape=process;whiteSpace=wrap;html=1;backgroundOutline=1;" vertex="1" parent="1">
          <mxGeometry x="1050" y="400" width="350" height="60" as="geometry" />
        </mxCell>
        <mxCell id="eRXFTEGCuirWfFOPao4L-34" value="Просмотр информации о проекте" style="strokeWidth=2;html=1;shape=mxgraph.flowchart.annotation_2;align=left;labelPosition=right;pointerEvents=1;" vertex="1" parent="1">
          <mxGeometry x="1400" y="270" width="70" height="100" as="geometry" />
        </mxCell>
        <mxCell id="eRXFTEGCuirWfFOPao4L-35" value="Мы можем захотеть посмотреть информацию&lt;br&gt;о всех проектах автора, чтобы оценить&lt;br&gt;его надежность" style="strokeWidth=2;html=1;shape=mxgraph.flowchart.annotation_2;align=left;labelPosition=right;pointerEvents=1;" vertex="1" parent="1">
          <mxGeometry x="1400" y="380" width="70" height="100" as="geometry" />
        </mxCell>
        <mxCell id="eRXFTEGCuirWfFOPao4L-41" style="edgeStyle=orthogonalEdgeStyle;rounded=0;orthogonalLoop=1;jettySize=auto;html=1;entryX=0.5;entryY=0;entryDx=0;entryDy=0;" edge="1" parent="1" source="eRXFTEGCuirWfFOPao4L-37" target="eRXFTEGCuirWfFOPao4L-29">
          <mxGeometry relative="1" as="geometry" />
        </mxCell>
        <mxCell id="eRXFTEGCuirWfFOPao4L-37" value="getAllProjects() -&amp;gt; array(project)" style="shape=process;whiteSpace=wrap;html=1;backgroundOutline=1;" vertex="1" parent="1">
          <mxGeometry x="1050" y="170" width="350" height="60" as="geometry" />
        </mxCell>
        <mxCell id="eRXFTEGCuirWfFOPao4L-42" value="Сначала смотрим все проекты" style="strokeWidth=2;html=1;shape=mxgraph.flowchart.annotation_2;align=left;labelPosition=right;pointerEvents=1;" vertex="1" parent="1">
          <mxGeometry x="1400" y="150" width="70" height="100" as="geometry" />
        </mxCell>
        <mxCell id="eRXFTEGCuirWfFOPao4L-43" value="invest(investAmmount, project.projectNumber, addressGuardMoney)-&amp;gt;array(project)" style="shape=process;whiteSpace=wrap;html=1;backgroundOutline=1;" vertex="1" parent="1">
          <mxGeometry x="1050" y="555" width="350" height="60" as="geometry" />
        </mxCell>
      </root>
    </mxGraphModel>
  </diagram>
</mxfile>
